PathFileType	4	(X/Y/Z)	Trial07_KneeR_markers_cropped.trc
DataRate	CameraRate	NumFrames	NumMarkers	Units	OrigDataRate	OrigDataStartFrame	OrigNumFrames
200	200	5	27	m	200	12	101
Frame#	Time	R_ASIS			L_ASIS			Sacral			L_Thigh_Superior			L_Thigh_Posterior			L_Thigh_Inferior			L_Thigh_Lateral			L_Shank_Posterior			L_Shank_Superior			L_Shank_Lateral			L_Shank_Inferior			L_Midfoot_Superior			L_Heel			L_Midfoot_Lateral			L_Toe			R_Thigh_Posterior			R_Thigh_Superior			R_Thigh_Lateral			R_Thigh_Inferior			R_Shank_Posterior			R_Shank_Superior			R_Shank_Lateral			R_Shank_Inferior			R_Midfoot_Superior			R_Heel			R_Midfoot_Lateral			R_Toe
		X1	Y1	Z1	X2	Y2	Z2	X3	Y3	Z3	X4	Y4	Z4	X5	Y5	Z5	X6	Y6	Z6	X7	Y7	Z7	X8	Y8	Z8	X9	Y9	Z9	X10	Y10	Z10	X11	Y11	Z11	X12	Y12	Z12	X13	Y13	Z13	X14	Y14	Z14	X15	Y15	Z15	X16	Y16	Z16	X17	Y17	Z17	X18	Y18	Z18	X19	Y19	Z19	X20	Y20	Z20	X21	Y21	Z21	X22	Y22	Z22	X23	Y23	Z23	X24	Y24	Z24	X25	Y25	Z25	X26	Y26	Z26	X27	Y27	Z27

13	   0.060	    1.06214902243241	    0.99642639464459	    0.55561571343858	    1.14181220052633	    0.97103611553229	    0.31476513922304	    0.91333190625519	    1.03863182230119	    0.38340628804061	    1.12104977489009	    0.72691511029677	    0.26002641139700	    1.04625598246763	    0.71993614617534	    0.25494977135212	    1.12397623222245	    0.63460737647402	    0.28272854768439	    1.04448478710375	    0.63226306082792	    0.27504670858319	    0.99275737942708	    0.36596635109469	    0.30593122288709	    1.06451671986249	    0.34573531816860	    0.31911216251778	    0.98595404524880	    0.29503262172036	    0.31072535317229	    1.05078981680840	    0.28917483659923	    0.32214654303053	    1.08911701647139	    0.08793179398906	    0.42979814113134	    0.91674840136084	    0.03769331861398	    0.44814756351263	    1.01803121597340	    0.02439657483650	    0.38155868702570	    1.21452617222836	    0.03511422020729	    0.43175782998993	    0.99398345044917	    0.79270271008435	    0.62745694410207	    1.06818941328433	    0.80653598489705	    0.63133311359201	    1.01661921831477	    0.69656927837141	    0.64052708762382	    1.08549315246753	    0.71380021458317	    0.64662876294399	    1.00621149044381	    0.39157132074202	    0.65699308080383	    1.08107919936207	    0.37647103373833	    0.66453174711451	    1.00219773850498	    0.32024619191414	    0.65329334245311	    1.07413404076068	    0.31703072141162	    0.65947751441245	    1.11494512906076	    0.11773425260337	    0.62452007801839	    0.95721642677147	    0.06659287694470	    0.55744264557567	    1.03413568034635	    0.04298027853323	    0.65235401383603	    1.23195961967457	    0.08144538222077	    0.66396858431901
14	   0.065	    1.06238562404042	    0.99637455769717	    0.55545042082675	    1.14196692052188	    0.97103241892979	    0.31452933666742	    0.91353599299046	    1.03857561033266	    0.38330701060128	    1.12114247145656	    0.72686211944778	    0.25985386212224	    1.04635011046823	    0.71994675248524	    0.25480117899396	    1.12403676797821	    0.63455270206560	    0.28257598267736	    1.04454651217485	    0.63224208825973	    0.27489982124245	    0.99278073512054	    0.36594379495092	    0.30582201924991	    1.06452835389769	    0.34570569692685	    0.31901815732549	    0.98597750820347	    0.29501126873884	    0.31063100513664	    1.05080556442610	    0.28915178718288	    0.32205861492140	    1.08911686409431	    0.08793341653305	    0.42979266701009	    0.91667968488458	    0.03771930264301	    0.44816612898568	    1.01803930643510	    0.02439613072095	    0.38155303938512	    1.21452417721484	    0.03510111101234	    0.43177123927989	    0.99481233371829	    0.79261571210591	    0.62717802431320	    1.06897177891734	    0.80665319616691	    0.63090976078947	    1.01770821961333	    0.69657949327073	    0.64039934134942	    1.08655745475565	    0.71401693343667	    0.64636739297525	    1.00301025965002	    0.39404513253534	    0.65578902988537	    1.07738904496561	    0.37684769466119	    0.66413556790343	    0.99694501287542	    0.32299139869340	    0.65175667476284	    1.06870391557715	    0.31760801931761	    0.65882478318016	    1.10407492112322	    0.11739076225576	    0.62357558204937	    0.94581444996480	    0.07077291489627	    0.55439057592884	    1.02089988354055	    0.04474372613287	    0.65006610087037	    1.21951609971977	    0.07763735073203	    0.66418112965512
15	   0.070	    1.06256674916255	    0.99630277798768	    0.55529144286645	    1.14210467303823	    0.97101597527649	    0.31433281392686	    0.91371687567150	    1.03853065448272	    0.38318731395772	    1.12125092257649	    0.72681482773344	    0.25969345052693	    1.04643952750690	    0.71992510932608	    0.25467397774392	    1.12411469566772	    0.63450677472198	    0.28244892796155	    1.04462648050115	    0.63221346501168	    0.27476567186921	    0.99283102298627	    0.36592268651878	    0.30570585058438	    1.06456792229128	    0.34567382724748	    0.31891906044520	    0.98601785607519	    0.29498792213966	    0.31053830642421	    1.05084261342994	    0.28912548521638	    0.32195844118116	    1.08912030199835	    0.08793963987654	    0.42978227227404	    0.91655483940749	    0.03776708583475	    0.44819431268795	    1.01804509978952	    0.02439534234013	    0.38154521470654	    1.21452627243445	    0.03509695941472	    0.43177961467194	    0.99562524747537	    0.79253312207605	    0.62687542437977	    1.06974574889837	    0.80678675364403	    0.63041838209800	    1.01883280517647	    0.69658668944819	    0.64024044551168	    1.08764614349538	    0.71424499358192	    0.64603956206555	    0.99965047982860	    0.39695689543701	    0.65456000244503	    1.07343914254944	    0.37749885368671	    0.66377778273129	    0.99137502753953	    0.32621320032991	    0.65013699753543	    1.06287360052621	    0.31847920865859	    0.65806948662240	    1.09211265317783	    0.11734546403956	    0.62242597095532	    0.93343092414951	    0.07600174842947	    0.55108727790110	    1.00645623981492	    0.04724219312030	    0.64748151936614	    1.20577807188097	    0.07374295524203	    0.66420186313141
16	   0.075	    1.06272471013164	    0.99623685788544	    0.55513198344760	    1.14221214568980	    0.97099331925426	    0.31414891041947	    0.91384358436641	    1.03849009968509	    0.38307309410228	    1.12136892257293	    0.72677576341681	    0.25952938725357	    1.04653839458247	    0.71985671556799	    0.25452955400805	    1.12421960352361	    0.63447460864765	    0.28231274067469	    1.04473151500846	    0.63218358973165	    0.27463527979682	    0.99291908827461	    0.36591217660961	    0.30558357401493	    1.06465126690165	    0.34564260748745	    0.31880401561621	    0.98609276233874	    0.29497434330832	    0.31042768480509	    1.05091293469032	    0.28909722792910	    0.32183549419308	    1.08912850607296	    0.08794596046987	    0.42977140814890	    0.91650542125430	    0.03778475168579	    0.44820128658925	    1.01805014750458	    0.02439702988250	    0.38153200621940	    1.21453087726464	    0.03509541645311	    0.43177850475768	    0.99643754024959	    0.79245673113898	    0.62657153558739	    1.07053374822604	    0.80697778986590	    0.62989854288658	    1.01997870269461	    0.69662067325811	    0.64010450568816	    1.08875355116621	    0.71451514294002	    0.64571365807096	    0.99629616090891	    0.40034572051422	    0.65336400234801	    1.06931213405014	    0.37834166715847	    0.66342708923781	    0.98564350563829	    0.33000595006267	    0.64861650513114	    1.05672596391132	    0.31960565787163	    0.65717636452645	    1.07917120775688	    0.11770975774046	    0.62087582595636	    0.92002820464557	    0.08240097320473	    0.54758274277875	    0.99092229670146	    0.05059908844914	    0.64456184101111	    1.19084019785620	    0.06994218042516	    0.66363220816780
17	   0.080	    1.06288079864712	    0.99619262751260	    0.55496942366030	    1.14229688905102	    0.97097424529710	    0.31395484934985	    0.91391192907167	    1.03844112720453	    0.38299479984526	    1.12148259162882	    0.72674472610094	    0.25933760311470	    1.04663860073905	    0.71977510795100	    0.25436534135052	    1.12433921311595	    0.63445161290385	    0.28213743121114	    1.04484732543863	    0.63215700918407	    0.27450258118281	    0.99304127058963	    0.36592401999218	    0.30544339701828	    1.06477154590931	    0.34561180843543	    0.31865700366145	    0.98619095396141	    0.29497617502642	    0.31026908756189	    1.05100356225605	    0.28906665574232	    0.32165983273227	    1.08914028870986	    0.08794331966669	    0.42976025887600	    0.91651181740689	    0.03778562554488	    0.44818484362093	    1.01805499694393	    0.02438499940958	    0.38152545070334	    1.21454362545409	    0.03509631056800	    0.43178047991148	    0.99725346362948	    0.79238723731415	    0.62630860031766	    1.07133786726998	    0.80722644787233	    0.62942173915676	    1.02118128715785	    0.69668315711672	    0.64005963457202	    1.08990052028908	    0.71485585059220	    0.64548627650819	    0.99313483381952	    0.40416617321359	    0.65225919299848	    1.06512933856750	    0.37932809551797	    0.66299530696662	    0.97983699008691	    0.33429863877424	    0.64719372031829	    1.05040805582327	    0.32106383275326	    0.65608042179289	    1.06533904547471	    0.11867680166538	    0.61875320244596	    0.90563084019579	    0.09004720405893	    0.54396163458262	    0.97445543527220	    0.05494136293409	    0.64121631260908	    1.17477633017394	    0.06639858290077	    0.66207345462561
